<svg xmlns="http://www.w3.org/2000/svg" version="1.1" xmlns:xlink="http://www.w3.org/1999/xlink" xmlns:svgjs="http://svgjs.dev/svgjs" viewBox="0 0 800 800"><defs><linearGradient x1="50%" y1="0%" x2="50%" y2="100%" id="gggyrate-grad"><stop stop-color="hsl(184, 14%, 93%)" stop-opacity="1" offset="0%"></stop><stop stop-color="hsl(167, 19%, 84%)" stop-opacity="1" offset="100%"></stop></linearGradient></defs><g stroke-width="1.5" stroke="url(#gggyrate-grad)" fill="none"><path d="M351.9644940641748 -292.80125443876005C381.68884625298597 -309.9595262581579 418.3110927118578 -309.9595262581579 448.03544490066895 -292.79645089121817L975.9645339373722 12.003051280185105C1005.6888861261834 29.161323099583 1024.000009355619 60.87914751825156 1024.000009355619 95.20049470458935V704.7994990473958C1024.000009355619 739.1208462337338 1005.6888861261834 770.8386706524022 975.9645339373722 788.0017460193419L448.03544490066895 1092.8012481907451C418.3110927118578 1109.959520010143 381.68884625298597 1109.959520010143 351.9644940641748 1092.7964446432034L-175.96459497252835 787.9969424718001C-205.68894716133963 770.8386706524022 -224.00007039077548 739.1208462337338 -224.00007039077548 704.7994990473958V95.20049470458935C-224.00007039077548 60.87914751825156 -205.68894716133963 29.161323099583 -175.96459497252835 11.99824773264345L351.9644940641748 -292.80125443876005Z " transform="rotate(156, 400, 400)" opacity="1.00"></path><path d="M353.19617292105283 -275.03710405952097C382.158362233228 -291.755420191242 417.84157673161576 -291.755420191242 446.8037660437909 -275.03242367986485L961.1962117718604 21.95170664098964C990.1584010840356 38.670022772710695 1008.0000083332295 69.57456964218272 1008.0000083332295 103.01588228528101V696.98414292699C1008.0000083332295 730.4254555700882 990.1584010840356 761.3300024395603 961.1962117718604 778.0529989509373L446.8037660437909 1075.0371292717919C417.84157673161576 1091.7554454035128 382.158362233228 1091.7554454035128 353.19617292105283 1075.0324488921358L-161.19627280701684 778.0483185712815C-190.15846211919188 761.3300024395603 -208.00006936838582 730.4254555700882 -208.00006936838582 696.98414292699V103.01588228528101C-208.00006936838582 69.57456964218272 -190.15846211919188 38.670022772710695 -161.19627280701684 21.947026261333576L353.19617292105283 -275.03710405952097Z " transform="rotate(152, 400, 400)" opacity="0.97"></path><path d="M354.427851777931 -257.2729384214929C382.6278782134699 -273.55129886553703 417.37206075137385 -273.55129886553703 445.57208718691277 -257.2683812097224L946.427889606349 31.900377260583355C974.6279160418878 48.17873770462734 992.0000073108399 78.27000702490284 992.0000073108399 110.83128512476173V689.1688020653733C992.0000073108399 721.7300801652318 974.6279160418878 751.8213494855072 946.427889606349 768.1042671413218L445.57208718691277 1057.2730256116276C417.37206075137385 1073.5513860556716 382.6278782134699 1073.5513860556716 354.427851777931 1057.2684683998573L-146.42795064150528 768.0997099295516C-174.62797707704414 751.8213494855072 -192.0000683459961 721.7300801652318 -192.0000683459961 689.1688020653733V110.83128512476173C-192.0000683459961 78.27000702490284 -174.62797707704414 48.17873770462734 -146.42795064150528 31.895820048812993L354.427851777931 -257.2729384214929Z " transform="rotate(148, 400, 400)" opacity="0.95"></path><path d="M355.65953063480913 -239.50883381862104C383.0973941937119 -255.34723857498832 416.90254477113183 -255.34723857498832 444.3404083300346 -239.50439977473627L931.6595674408375 41.84898684502059C959.0974309997403 57.687391601387844 976.0000062884501 86.96538337246659 976.0000062884501 118.6466269290861V681.3534001685998C976.0000062884501 713.0346437252192 959.0974309997403 742.3126354962978 931.6595674408375 758.15547429655L444.3404083300346 1039.5088609163067C416.90254477113183 1055.3472656726742 383.0973941937119 1055.3472656726742 355.65953063480913 1039.504426872422L-131.6596284759937 758.1510402526651C-159.09749203489645 742.3126354962978 -176.00006732360646 713.0346437252192 -176.00006732360646 681.3534001685998V118.6466269290861C-176.00006732360646 86.96538337246659 -159.09749203489645 57.687391601387844 -131.6596284759937 41.84455280113593L355.65953063480913 -239.50883381862104Z " transform="rotate(144, 400, 400)" opacity="0.93"></path><path d="M356.8912094916873 -221.7447292157492C383.56691017395383 -237.14317828443959 416.4330287908899 -237.14317828443959 443.1087294731565 -221.74041833975008L916.8912452753259 51.79759642945805C943.5669459575925 67.19604549814835 960.0000052660605 95.66075972003046 960.0000052660605 126.46196873341046V673.5379982718268C960.0000052660605 704.3392072852066 943.5669459575925 732.8039215070887 916.8912452753259 748.2066814517782L443.1087294731565 1021.7446962209863C416.4330287908899 1037.1431452896768 383.56691017395383 1037.1431452896768 356.8912094916873 1021.7403853449873L-116.89130631048215 748.2023705757792C-143.5670069927487 732.8039215070887 -160.00006630121675 704.3392072852066 -160.00006630121675 673.5379982718268V126.46196873341046C-160.00006630121675 95.66075972003046 -143.5670069927487 67.19604549814835 -116.89130631048215 51.793285553458986L356.8912094916873 -221.7447292157492Z " transform="rotate(140, 400, 400)" opacity="0.90"></path><path d="M358.1228883485654 -203.9805635777211C384.03642615419574 -218.93905695873462 415.963512810648 -218.93905695873462 441.8770506162783 -203.9763758696077L902.1229231098146 61.74626704905154C928.0364609154446 76.70476043006511 944.0000042436709 104.35619710275068 944.0000042436709 134.2773715728913V665.7226574102099C944.0000042436709 695.6438318803505 928.0364609154446 723.2952685530358 902.1229231098146 738.2579496421627L441.8770506162783 1003.9805925608221C415.963512810648 1018.9390859418356 384.03642615419574 1018.9390859418356 358.1228883485654 1003.9764048527088L-102.12298414497064 738.2537619340492C-128.03652195060096 723.2952685530358 -144.0000652788271 695.6438318803505 -144.0000652788271 665.7226574102099V134.2773715728913C-144.0000652788271 104.35619710275068 -128.03652195060096 76.70476043006511 -102.12298414497064 61.74207934093829L358.1228883485654 -203.9805635777211Z " transform="rotate(136, 400, 400)" opacity="0.88"></path><path d="M359.3545672054436 -186.21645897484922C384.50594213443765 -200.73499666818591 415.4939968304061 -200.73499666818591 440.6453717594002 -186.2123944346215L887.354600944303 71.694876633489C912.5059758732971 86.21341432682561 928.0000032212813 113.05157345031444 928.0000032212813 142.09271337721566V657.9072555134367C928.0000032212813 686.9483954403377 912.5059758732971 713.7865545638265 887.354600944303 728.3091567973906L440.6453717594002 986.2164278655014C415.4939968304061 1000.734965558838 384.50594213443765 1000.734965558838 359.3545672054436 986.2123633252738L-87.35466197945908 728.3050922571633C-112.50603690845321 713.7865545638265 -128.00006425643744 686.9483954403377 -128.00006425643744 657.9072555134367V142.09271337721566C-128.00006425643744 113.05157345031444 -112.50603690845321 86.21341432682561 -87.35466197945908 71.69081209326134L359.3545672054436 -186.21645897484922Z " transform="rotate(132, 400, 400)" opacity="0.85"></path><path d="M360.5862460623216 -168.4523085956102C384.97545811467967 -182.53089060127 415.0244808501641 -182.53089060127 439.41369290252203 -168.44836722326818L872.5862787787914 81.64353199429354C896.9754908311493 95.72211399995331 912.0000021988915 121.74699557424549 912.0000021988915 149.9081009579072V650.0918993930304C912.0000021988915 678.2530047766923 896.9754908311493 704.2778863509845 872.5862787787914 718.3604097289863L439.41369290252203 968.4523089465481C415.0244808501641 982.5308909522078 384.97545811467967 982.5308909522078 360.5862460623216 968.448367574206L-72.58633981394757 718.3564683566442C-96.97555186630552 704.2778863509845 -112.00006323404773 678.2530047766923 -112.00006323404773 650.0918993930304V149.9081009579072C-112.00006323404773 121.74699557424549 -96.97555186630552 95.72211399995331 -72.58633981394757 81.63959062195158L360.5862460623216 -168.4523085956102Z " transform="rotate(128, 400, 400)" opacity="0.82"></path><path d="M361.81792491919987 -150.6881429575821C385.4449740949216 -164.32676927556503 414.5549648699222 -164.32676927556503 438.182014045644 -150.68432475312574L857.8179566132796 91.59220261388714C881.4450057890017 105.23082893187006 896.0000011765019 130.4424329569656 896.0000011765019 157.72350379738793V642.2765585314137C896.0000011765019 669.5576293718361 881.4450057890017 694.7692333969317 857.8179566132796 708.411677919371L438.182014045644 950.6882052863837C414.5549648699222 964.3268316043666 385.4449740949216 964.3268316043666 361.81792491919987 950.6843870819275L-57.81801764843601 708.4078597149146C-81.44506682415778 694.7692333969317 -96.00006221165808 669.5576293718361 -96.00006221165808 642.2765585314137V157.72350379738793C-96.00006221165808 130.4424329569656 -81.44506682415778 105.23082893187006 -57.81801764843601 91.58838440943094L361.81792491919987 -150.6881429575821Z " transform="rotate(124, 400, 400)" opacity="0.80"></path><path d="M363.0496037760779 -132.9240230959212C385.9144900751635 -146.12269372622725 414.08544888968026 -146.12269372622725 436.95033518876585 -132.92032805935054L843.0496344477683 101.54082745711355C865.9145207468537 114.73949808741958 880.0000001541121 139.13782456331853 880.0000001541121 165.53886086050147V634.4611718934295C880.0000001541121 660.8622081906124 865.9145207468537 685.2605346665114 843.0496344477683 698.462900333388L436.95033518876585 932.924055849852C414.08544888968026 946.122726480158 385.9144900751635 946.122726480158 363.0496037760779 932.9203608132816L-43.04969548292445 698.4592052968173C-65.91458178201003 685.2605346665114 -80.00006118926842 660.8622081906124 -80.00006118926842 634.4611718934295V165.53886086050147C-80.00006118926842 139.13782456331853 -65.91458178201003 114.73949808741958 -43.04969548292445 101.537132420543L363.0496037760779 -132.9240230959212Z " transform="rotate(120, 400, 400)" opacity="0.78"></path><path d="M364.28128263295605 -115.15985745789305C386.3840060554055 -127.91857240052227 413.61593290943824 -127.91857240052227 435.7186563318877 -115.1562855892081L828.2813122822567 111.48949807670715C850.3840357047061 124.24821301933633 863.9999991317227 147.83326194603865 863.9999991317227 173.35426369998208V626.6458310318127C863.9999991317227 652.166832785756 850.3840357047061 675.7518817124583 828.2813122822567 688.5141685237722L435.7186563318877 915.1599521896878C413.61593290943824 927.9186671323168 386.3840060554055 927.9186671323168 364.28128263295605 915.1563803210029L-28.281373317412886 688.5105966550877C-50.38409673986229 675.7518817124583 -64.00006016687871 652.166832785756 -64.00006016687871 626.6458310318127V173.35426369998208C-64.00006016687871 147.83326194603865 -50.38409673986229 124.24821301933633 -28.281373317412886 111.4859262080223L364.28128263295605 -115.15985745789305Z " transform="rotate(116, 400, 400)" opacity="0.75"></path><path d="M365.5129614898342 -97.39576811381028C386.8535220356474 -109.71452736876262 413.14641692919633 -109.71452736876262 434.48697747500955 -97.39231941301102L813.5129901167452 121.43809240235544C834.8535506625583 133.75685165730783 847.9999981093329 156.52862303481356 847.9999981093329 181.1695902455175V618.8304138762505C847.9999981093329 643.4713810869545 834.8535506625583 666.2431524644603 813.5129901167452 678.5653604202116L434.48697747500955 897.3957722355781C413.14641692919633 909.7145314905306 386.8535220356474 909.7145314905306 365.5129614898342 897.3923235347788L-13.51305115190138 678.5619117194124C-34.8536116977146 666.2431524644603 -48.00005914448906 643.4713810869545 -48.00005914448906 618.8304138762505V181.1695902455175C-48.00005914448906 156.52862303481356 -34.8536116977146 133.75685165730783 -13.51305115190138 121.4346437015563L365.5129614898342 -97.39576811381028Z " transform="rotate(112, 400, 400)" opacity="0.72"></path><path d="M366.74464034671234 -79.63166351093844C387.3230380158893 -91.5104670782139 412.6769009489544 -91.5104670782139 433.2552986181314 -79.62833797802483L798.7446679512336 131.3867019867928C819.3230656204105 143.26550555406828 831.999997086943 165.22399938237731 831.999997086943 188.98493204984197V611.0150119794773C831.999997086943 634.7759446469419 819.3230656204105 656.7344384752508 798.7446679512336 668.6165675754398L433.2552986181314 879.6316075402574C412.6769009489544 891.510411107533 387.3230380158893 891.510411107533 366.74464034671234 879.6282820073438L1.2552710136101837 668.6132420425263C-19.323126655566853 656.7344384752508 -32.00005812209935 634.7759446469419 -32.00005812209935 611.0150119794773V188.98493204984197C-32.00005812209935 165.22399938237731 -19.323126655566853 143.26550555406828 1.2552710136101837 131.38337645387935L366.74464034671234 -79.63166351093844Z " transform="rotate(108, 400, 400)" opacity="0.70"></path><path d="M367.9763192035905 -61.86749787291035C387.79255399613135 -73.30634575250892 412.2073849687124 -73.30634575250892 432.02361976125326 -61.864295507882446L783.9763457857221 141.3353726063864C803.7925805782629 152.77422048598498 815.9999960645534 173.91943676509743 815.9999960645534 196.80033488932258V603.1996711178604C815.9999960645534 626.0805692420855 803.7925805782629 647.2257855211978 783.9763457857221 658.6678357658243L432.02361976125326 861.867503880093C412.2073849687124 873.3063517596918 387.79255399613135 873.3063517596918 367.9763192035905 861.8643015150653L16.02359317912169 658.6646334007964C-3.792641613419107 647.2257855211978 -16.000057099709693 626.0805692420855 -16.000057099709693 603.1996711178604V196.80033488932258C-16.000057099709693 173.91943676509743 -3.792641613419107 152.77422048598498 16.02359317912169 141.3321702413586L367.9763192035905 -61.86749787291035Z " transform="rotate(104, 400, 400)" opacity="0.68"></path><path d="M369.2079980604685 -44.10333223488226C388.26206997637325 -55.10222442680396 411.7378689884705 -55.10222442680396 430.7919409043752 -44.10025303774L769.2080236202105 151.28404322598004C788.2620955361151 162.28293541790174 799.9999950421638 182.61487414781755 799.9999950421638 204.6157377288033V595.3843302562434C799.9999950421638 617.3851938372292 788.2620955361151 637.717132567145 769.2080236202105 648.7191039562088L430.7919409043752 844.1034002199287C411.7378689884705 855.1022924118506 388.26206997637325 855.1022924118506 369.2079980604685 844.1003210227866L30.791915344633253 648.7160247590666C11.737843428728638 637.717132567145 -0.00005607732003909405 617.3851938372292 -0.00005607732003909405 595.3843302562434V204.6157377288033C-0.00005607732003909405 182.61487414781755 11.737843428728638 162.28293541790174 30.791915344633253 151.28096402883796L369.2079980604685 -44.10333223488226Z " transform="rotate(100, 400, 400)" opacity="0.65"></path><path d="M370.4396769173468 -26.339227632010363C388.73158595661516 -36.89816413625522 411.2683530082286 -36.89816413625522 429.56026204749696 -26.336271602753868L754.4397014546989 161.23265281041745C772.7316104939673 171.79158931466225 783.999994019774 191.3102504953814 783.999994019774 212.43107953312767V587.5689283594702C783.999994019774 608.6897573972166 772.7316104939673 628.2084185779356 754.4397014546989 638.770311111437L429.56026204749696 826.3392355246083C411.2683530082286 836.898172028853 388.73158595661516 836.898172028853 370.4396769173468 826.3362794953518L45.560237510144816 638.7673550821805C27.268328470876327 628.2084185779356 15.999944945069672 608.6897573972166 15.999944945069672 587.5689283594702V212.43107953312767C15.999944945069672 191.3102504953814 27.268328470876327 171.79158931466225 45.560237510144816 161.22969678116095L370.4396769173468 -26.339227632010363Z " transform="rotate(96, 400, 400)" opacity="0.63"></path><path d="M371.67138629180295 -8.575061993982274C389.2011324544353 -18.694042810550258 410.7988675455647 -18.694042810550258 428.32861370819705 -8.572229132611426L739.6714098067655 171.181323430011C757.2011559693979 181.300304246579 768.0000235149624 200.00568787810153 768.0000235149624 220.2464823726084V579.7535874978532C768.0000235149624 599.9943819923601 757.2011559693979 618.6997656238827 739.6714098067655 628.8215793018214L428.32861370819705 808.5751318644438C410.7988675455647 818.6941126810118 389.2011324544353 818.6941126810118 371.67138629180295 808.5722990030731L60.328590193234504 628.8187464404507C42.7988440306022 618.6997656238827 31.99997648503745 599.9943819923601 31.99997648503745 579.7535874978532V220.2464823726084C31.99997648503745 200.00568787810153 42.7988440306022 181.300304246579 60.328590193234504 171.17849056864026L371.67138629180295 -8.575061993982274Z " transform="rotate(92, 400, 400)" opacity="0.60"></path><path d="M372.9030651486811 9.189042608889565C389.6706484346771 -0.4899825200015471 410.3293515653229 -0.4899825200015471 427.0969348513189 9.19175230237471L724.9030876412539 181.1299330144484C741.6706709272501 190.8089581433395 752.0000224925728 208.7010642256654 752.0000224925728 228.06182417693287V571.9381856010801C752.0000224925728 591.2989455523475 741.6706709272501 609.1910516346735 724.9030876412539 618.8727864570496L427.0969348513189 790.8109671691234C410.3293515653229 800.4899922980144 389.6706484346771 800.4899922980144 372.9030651486811 790.8082574756381L75.09691235874601 618.8700767635646C58.32932907274994 609.1910516346735 47.99997750742716 591.2989455523475 47.99997750742716 571.9381856010801V228.06182417693287C47.99997750742716 208.7010642256654 58.32932907274994 190.8089581433395 75.09691235874601 181.1272233209633L372.9030651486811 9.189042608889565Z " transform="rotate(88, 400, 400)" opacity="0.57"></path><path d="M374.13474400555924 26.95317772933953C390.1401644149191 17.714108288125317 409.8598355850809 17.714108288125317 425.86525599444076 26.955764254939027L710.1347654757425 191.07857311646387C726.1401858851024 200.31764255767808 736.0000214701832 217.39647109080738 736.0000214701832 235.87719649883536V564.122814221885C736.0000214701832 582.603539629913 726.1401858851024 599.6823681630423 710.1347654757425 608.924024129856L425.86525599444076 773.0468329913808C409.8598355850809 782.2859024325951 390.1401644149191 782.2859024325951 374.13474400555924 773.0442464657815L89.86523452425757 608.9214376042567C73.85981411489763 599.6823681630423 63.999978529816815 582.603539629913 63.999978529816815 564.122814221885V235.87719649883536C63.999978529816815 217.39647109080738 73.85981411489763 200.31764255767808 89.86523452425757 191.0759865908645L374.13474400555924 26.95317772933953Z " transform="rotate(84, 400, 400)" opacity="0.55"></path><path d="M375.3664228624374 44.71731284978955C390.60968039516115 35.91819909625215 409.39031960483885 35.91819909625215 424.6335771375626 44.71977620750329L695.3664433102309 201.02721321847935C710.6097008429547 209.82632697201672 720.0000204477935 226.09187795594937 720.0000204477935 243.69256882073796V556.30744284269C720.0000204477935 573.9081337074786 710.6097008429547 590.1736846914113 695.3664433102309 598.9752618026622L424.6335771375626 755.2826988136383C409.39031960483885 764.0818125671757 390.60968039516115 764.0818125671757 375.3664228624374 755.2802354559246L104.63355668976914 598.9727984449486C89.39029915704538 590.1736846914113 79.99997955220647 573.9081337074786 79.99997955220647 556.30744284269V243.69256882073796C79.99997955220647 226.09187795594937 89.39029915704538 209.82632697201672 104.63355668976914 201.0247498607656L375.3664228624374 44.71731284978955Z " transform="rotate(80, 400, 400)" opacity="0.53"></path><path d="M376.59810171931554 62.481447970239515C391.07919637540306 54.12228990437899 408.92080362459694 54.12228990437899 423.40189828068446 62.483788160067604L680.5981211447192 210.97585332049482C695.0792158008069 219.33501138635535 704.0000194254038 234.78728482109136 704.0000194254038 251.5079411426405V548.492071463495C704.0000194254038 565.2127277850441 695.0792158008069 580.6650012197802 680.5981211447192 589.0264994754687L423.40189828068446 737.5185646358959C408.92080362459694 745.8777227017564 391.07919637540306 745.8777227017564 376.59810171931554 737.5162244460679L119.40187885528064 589.0241592856407C104.92078419919312 580.6650012197802 95.99998057459618 565.2127277850441 95.99998057459618 548.492071463495V251.5079411426405C95.99998057459618 234.78728482109136 104.92078419919312 219.33501138635535 119.40187885528064 210.9735131306668L376.59810171931554 62.481447970239515Z " transform="rotate(76, 400, 400)" opacity="0.50"></path><path d="M377.82978057619357 80.24558309068948C391.54871235564497 72.32638071250585 408.45128764435503 72.32638071250585 422.17021942380643 80.24780011263186L665.8297989792078 220.9244934225103C679.5487307586592 228.84369580069392 688.0000184030141 243.4826916862333 688.0000184030141 259.32331346454305V540.6767000842999C688.0000184030141 556.5173218626096 679.5487307586592 571.1563177481489 665.8297989792078 579.077737148275L422.17021942380643 719.7544304581534C408.45128764435503 727.6736328363371 391.54871235564497 727.6736328363371 377.82978057619357 719.752213436211L134.1702010207922 579.0755201263325C120.45126924134087 571.1563177481489 111.99998159698583 556.5173218626096 111.99998159698583 540.6767000842999V259.32331346454305C111.99998159698583 243.4826916862333 120.45126924134087 228.84369580069392 134.1702010207922 220.92227640056797L377.82978057619357 80.24558309068948Z " transform="rotate(72, 400, 400)" opacity="0.47"></path><path d="M379.06145943307183 98.00971821113944C392.018228335887 90.53047152063269 407.981771664113 90.53047152063269 420.93854056692817 98.01181206519618L651.0614768136963 230.87313352452577C664.0182457165114 238.35238021503255 672.0000173806245 252.17809855137534 672.0000173806245 267.13868578644565V532.8613287051049C672.0000173806245 547.8219159401752 664.0182457165114 561.6476342765179 651.0614768136963 569.1289748210813L420.93854056692817 701.990296280411C407.981771664113 709.4695429709178 392.018228335887 709.4695429709178 379.06145943307183 701.9882024263544L148.93852318630377 569.1268809670246C135.98175428348856 561.6476342765179 127.99998261937549 547.8219159401752 127.99998261937549 532.8613287051049V267.13868578644565C127.99998261937549 252.17809855137534 135.98175428348856 238.35238021503255 148.93852318630377 230.87103967046914L379.06145943307183 98.00971821113944Z " transform="rotate(68, 400, 400)" opacity="0.45"></path><path d="M380.29313828994987 115.77385333158941C392.4877443161289 108.73456232875952 407.5122556838711 108.73456232875952 419.70686171005013 115.77582401776044L636.2931546481848 240.8217736265413C648.4877606743637 247.86106462937119 656.0000163582348 260.8735054165173 656.0000163582348 274.95405810834814V525.0459573259097C656.0000163582348 539.1265100177407 648.4877606743637 552.1389508048868 636.2931546481848 559.1802124938877L419.70686171005013 684.2261621026686C407.5122556838711 691.2654531054984 392.4877443161289 691.2654531054984 380.29313828994987 684.2241914164975L163.70684535181528 559.1782418077166C151.5122393256363 552.1389508048868 143.9999836417652 539.1265100177407 143.9999836417652 525.0459573259097V274.95405810834814C143.9999836417652 260.8735054165173 151.5122393256363 247.86106462937119 163.70684535181528 240.81980294037032L380.29313828994987 115.77385333158941Z " transform="rotate(64, 400, 400)" opacity="0.43"></path><path d="M381.5248324056171 133.53798845203943C392.95727555515987 126.93865313688639 407.04275496241826 126.93865313688639 418.47519811196105 133.53983597032476L621.5248477414623 250.77041372855678C632.957290891005 257.3697490437098 640.0000305946342 269.56891228165927 640.0000305946342 282.76943043025074V517.2305859467148C640.0000305946342 530.4311040953062 632.957290891005 542.6302673332557 621.5248477414623 549.231450166694L418.47519811196105 666.462027924926C407.04275496241826 673.061363240079 392.95727555515987 673.061363240079 381.5248324056171 666.4601804066408L178.4751827761159 549.2296026484087C167.0427396265731 542.6302673332557 159.9999999229439 530.4311040953062 159.9999999229439 517.2305859467148V282.76943043025074C159.9999999229439 269.56891228165927 167.0427396265731 257.3697490437098 178.4751827761159 250.7685662102715L381.5248324056171 133.53798845203943Z " transform="rotate(60, 400, 400)" opacity="0.40"></path><path d="M382.75649600370616 151.3021235724894C393.42677627661277 145.14274394501322 406.57322372338723 145.14274394501322 417.24350399629384 151.30384792288902L606.7565103171617 260.71905383057225C617.4267905900682 266.87843345804845 624.0000143134555 278.2643191468013 624.0000143134555 290.5848027521533V509.4152145675198C624.0000143134555 521.7356981728717 617.4267905900682 533.1215838616247 606.7565103171617 539.2826878395003L417.24350399629384 648.6978937471836C406.57322372338723 654.8572733746598 393.42677627661277 654.8572733746598 382.75649600370616 648.696169396784L193.2434896828384 539.2809634891007C182.5732094099318 533.1215838616247 175.99998568654456 521.7356981728717 175.99998568654456 509.4152145675198V290.5848027521533C175.99998568654456 278.2643191468013 182.5732094099318 266.87843345804845 193.2434896828384 260.7173294801727L382.75649600370616 151.3021235724894Z " transform="rotate(56, 400, 400)" opacity="0.38"></path><path d="M383.9881748605843 169.06625869293936C393.89629225685474 163.34683475314006 406.10370774314526 163.34683475314006 416.0118251394157 169.06785987545334L591.9881881516501 270.6676939325877C601.8963055479205 276.387117872387 608.0000132910658 286.95972601194325 608.0000132910658 298.4001750740558V501.5998431883247C608.0000132910658 513.0402922504372 601.8963055479205 523.6129003899935 591.9881881516501 529.3339255123067L416.0118251394157 630.933759569441C406.10370774314526 636.6531835092404 393.89629225685474 636.6531835092404 383.9881748605843 630.9321583869272L208.0118118483499 529.3323243297928C198.10369445207948 523.6129003899935 191.99998670893422 513.0402922504372 191.99998670893422 501.5998431883247V298.4001750740558C191.99998670893422 286.95972601194325 198.10369445207948 276.387117872387 208.0118118483499 270.66609275007386L383.9881748605843 169.06625869293936Z " transform="rotate(52, 400, 400)" opacity="0.35"></path><path d="M385.21985371746246 186.83039381338932C394.36580823709664 181.55092556126692 405.63419176290336 181.55092556126692 414.78014628253754 186.8318718280176L577.2198659861385 280.61633403460326C586.3658205057727 285.89580228672565 592.0000122686761 295.65513287708524 592.0000122686761 306.21554739595837V493.7844718091296C592.0000122686761 504.34488632800276 586.3658205057727 514.1042169183623 577.2198659861385 519.385163185113L414.78014628253754 613.1696253916987C405.63419176290336 618.449093643821 394.36580823709664 618.449093643821 385.21985371746246 613.1681473770705L222.78013401386147 519.3836851704848C213.63417949422723 514.1042169183623 207.99998773132387 504.34488632800276 207.99998773132387 493.7844718091296V306.21554739595837C207.99998773132387 295.65513287708524 213.63417949422723 285.89580228672565 222.78013401386147 280.61485601997504L385.21985371746246 186.83039381338932Z " transform="rotate(48, 400, 400)" opacity="0.33"></path><path d="M386.45153257434055 204.59448315747215C394.83532421733855 199.75497059302657 405.16467578266145 199.75497059302657 413.54846742565945 204.59583800421473L562.451543820627 290.56492836025154C570.835335463625 295.4044409246971 576.0000112462865 304.35049396586004 576.0000112462865 314.0308739414938V485.96905465356735C576.0000112462865 495.6494346292011 570.835335463625 504.59548767036404 562.451543820627 509.43635508155216L413.54846742565945 595.405445437589C405.16467578266145 600.2449580020345 394.83532421733855 600.2449580020345 386.45153257434055 595.4040905908464L237.54845617937303 509.43500023480965C229.16466453637497 504.59548767036404 223.99998875371358 495.6494346292011 223.99998875371358 485.96905465356735V314.0308739414938C223.99998875371358 304.35049396586004 229.16466453637497 295.4044409246971 237.54845617937303 290.563573513509L386.45153257434055 204.59448315747215Z " transform="rotate(44, 400, 400)" opacity="0.30"></path><path d="M387.6832114312187 222.3586640542893C395.3048401975806 217.9591071775206 404.6951598024194 217.9591071775206 412.3167885687813 222.35989573314617L547.6832216551154 300.5136142386342C555.3048504214773 304.91317111540286 560.0000102238968 313.0459466073692 560.0000102238968 321.8462920397635V478.15372905073946C560.0000102238968 486.9540744831338 555.3048504214773 495.0868499751002 547.6832216551154 499.4876385307257L412.3167885687813 577.6413570362137C404.6951598024194 582.0409139129824 395.3048401975806 582.0409139129824 387.6832114312187 577.6401253573569L252.31677834488454 499.4864068518689C244.69514957852272 495.0868499751002 239.99998977610323 486.9540744831338 239.99998977610323 478.15372905073946V321.8462920397635C239.99998977610323 313.0459466073692 244.69514957852272 304.91317111540286 252.31677834488454 300.51238255977734L387.6832114312187 222.3586640542893Z " transform="rotate(40, 400, 400)" opacity="0.28"></path><path d="M388.9148902880968 240.12279917473927C395.7743561778225 236.16319798564746 404.2256438221775 236.16319798564746 411.0851097119032 240.1239076857105L532.9148994896038 310.4622543406497C539.7743653793295 314.4218555297415 544.000009201507 321.74135347251115 544.000009201507 329.66166436166606V470.3383576715445C544.000009201507 478.25866856069933 539.7743653793295 485.578166503469 532.9148994896038 489.538876203532L411.0851097119032 559.8772228584712C404.2256438221775 563.8368240475631 395.7743561778225 563.8368240475631 388.9148902880968 559.8761143475001L267.0851005103961 489.5377676925608C260.2256346206704 485.578166503469 255.99999079849295 478.25866856069933 255.99999079849295 470.3383576715445V329.66166436166606C255.99999079849295 321.74135347251115 260.2256346206704 314.4218555297415 267.0851005103961 310.4611458296785L388.9148902880968 240.12279917473927Z " transform="rotate(36, 400, 400)" opacity="0.25"></path><path d="M390.14656914497493 257.8869190364002C396.24387215806445 254.36727353498523 403.75612784193555 254.36727353498523 409.85343085502507 257.8879043794857L518.1465773240924 320.4108791838761C524.2438803371818 323.93052468529106 528.0000081791175 330.4367450788641 528.0000081791175 337.47702142477954V462.52297103356034C528.0000081791175 469.5632473794758 524.2438803371818 476.06946777304887 518.1465773240924 479.5900986175493L409.85343085502507 542.1130734219398C403.75612784193555 545.6327189233547 396.24387215806445 545.6327189233547 390.14656914497493 542.1120880788542L281.85342267590767 479.5891132744638C275.75611966281815 476.06946777304887 271.9999918208826 469.5632473794758 271.9999918208826 462.52297103356034V337.47702142477954C271.9999918208826 330.4367450788641 275.75611966281815 323.93052468529106 281.85342267590767 320.40989384079063L390.14656914497493 257.8869190364002Z " transform="rotate(32, 400, 400)" opacity="0.23"></path><path d="M391.3782480018531 275.6510465274556C396.7133881383064 272.5713567137176 403.2866118616936 272.5713567137176 408.6217519981469 275.6519087026554L503.3782551585808 330.35951165649703C508.7133952950341 333.43920147023516 512.0000071567277 339.1321443146116 512.0000071567277 345.2923861172876V454.70759202497084C512.0000071567277 460.8678338276468 508.7133952950341 466.5607766720233 503.3782551585808 469.6413286609611L408.6217519981469 524.3489316148027C403.2866118616936 527.4286214285409 396.7133881383064 527.4286214285409 391.3782480018531 524.3480694396029L296.6217448414192 469.6404664857613C291.2866047049659 466.5607766720233 287.99999284327225 460.8678338276468 287.99999284327225 454.70759202497084V345.2923861172876C287.99999284327225 339.1321443146116 291.2866047049659 333.43920147023516 296.6217448414192 330.3586494812973L391.3782480018531 275.6510465274556Z " transform="rotate(28, 400, 400)" opacity="0.20"></path><path d="M392.6099268587312 293.41520453608916C397.1829041185483 290.775470410028 402.8170958814517 290.775470410028 407.3900731412688 293.41594354340333L488.60993299306926 340.30817464669616C493.18291025288636 342.9479087727574 496.00000613433804 347.8275740679371 496.00000613433804 353.10778132737374V446.89224353395934C496.00000613433804 452.1724507933959 493.18291025288636 457.0521160885757 488.60993299306926 459.69258922195104L407.3900731412688 506.58482032524387C402.8170958814517 509.22455445130504 397.1829041185483 509.22455445130504 392.6099268587312 506.58408131792976L311.39006700693074 459.69185021463693C306.81708974711364 457.0521160885757 303.99999386566196 452.1724507933959 303.99999386566196 446.89224353395934V353.10778132737374C303.99999386566196 347.8275740679371 306.81708974711364 342.9479087727574 311.39006700693074 340.30743563938205L392.6099268587312 293.41520453608916Z " transform="rotate(24, 400, 400)" opacity="0.18"></path><path d="M393.8416057156094 311.1793167683556C397.6524200987903 308.9795383299712 402.3475799012097 308.9795383299712 406.1583942843906 311.17993260778405L473.8416108275577 350.25679186052804C477.65242521073867 352.45657029891237 480.0000051119484 356.5229580448955 480.0000051119484 360.9231307610927V439.07684926658067C480.0000051119484 443.47702198277784 477.65242521073867 447.54340972876105 473.8416108275577 449.7438040065738L406.1583942843906 488.82066325931777C402.3475799012097 491.02044169770215 397.6524200987903 491.02044169770215 393.8416057156094 488.82004741988936L326.1583891724423 449.7431881671454C322.34757478926133 447.54340972876105 319.9999948880516 443.47702198277784 319.9999948880516 439.07684926658067V360.9231307610927C319.9999948880516 356.5229580448955 322.34757478926133 352.45657029891237 326.1583891724423 350.25617602109963L393.8416057156094 311.1793167683556Z " transform="rotate(20, 400, 400)" opacity="0.15"></path><path d="M395.07328457248747 328.9434671475946C398.1219360790322 327.1836443968872 401.87806392096775 327.1836443968872 404.92671542751253 328.9439598191374L459.0732886620462 360.2054472213326C462.1219401685909 361.96526997204006 464.00000408955873 365.21838016882657 464.00000408955873 368.7385183417843V431.2614931461747C464.00000408955873 434.78163131913243 462.1219401685909 438.034741515919 459.0732886620462 439.7950569381692L404.92671542751253 471.05654434036444C401.87806392096775 472.81636709107187 398.1219360790322 472.81636709107187 395.07328457248747 471.0560516688216L340.9267113379538 439.7945642666264C337.8780598314091 438.034741515919 335.99999591044127 434.78163131913243 335.99999591044127 431.2614931461747V368.7385183417843C335.99999591044127 365.21838016882657 337.8780598314091 361.96526997204006 340.9267113379538 360.2049545497898L395.07328457248747 328.9434671475946Z " transform="rotate(16, 400, 400)" opacity="0.13"></path><path d="M396.3049634293656 346.70760226804464C398.59145205927416 345.387735205014 401.40854794072584 345.387735205014 403.6950365706344 346.70797177170164L444.30496649653463 370.15408732334805C446.5914551264432 371.4739543863787 448.000003067169 373.91378703396856 448.000003067169 376.55389066368684V423.4461217669797C448.000003067169 426.08622539669796 446.5914551264432 428.5260580442879 444.30496649653463 429.8462946109755L403.6950365706344 453.29241016262193C401.40854794072584 454.6122772256525 398.59145205927416 454.6122772256525 396.3049634293656 453.2920406589649L355.69503350346537 429.84592510731846C353.4085448735568 428.5260580442879 351.999996932831 426.08622539669796 351.999996932831 423.4461217669797V376.55389066368684C351.999996932831 373.91378703396856 353.4085448735568 371.4739543863787 355.69503350346537 370.153717819691L396.3049634293656 346.70760226804464Z " transform="rotate(12, 400, 400)" opacity="0.10"></path><path d="M397.53664228624376 364.47172975910007C399.0609680395161 363.5918183837463 400.9390319604839 363.5918183837463 402.46335771375624 364.4719760948714L429.53664433102307 380.10271979596905C431.0609700842955 380.98263117132274 432.00000204477936 382.609186269716 432.00000204477936 384.3692553561949V415.6307427583901C432.00000204477936 417.39081184486895 431.0609700842955 419.01736694326223 429.53664433102307 419.8975246543873L402.46335771375624 435.52826835548495C400.9390319604839 436.4081797308387 399.0609680395161 436.4081797308387 397.53664228624376 435.52802201971355L370.46335566897693 419.897278318616C368.93902991570457 419.01736694326223 367.99999795522064 417.39081184486895 367.99999795522064 415.6307427583901V384.3692553561949C367.99999795522064 382.609186269716 368.93902991570457 380.98263117132274 370.46335566897693 380.10247346019764L397.53664228624376 364.47172975910007Z " transform="rotate(8, 400, 400)" opacity="0.08"></path><path d="M398.76832114312185 382.23587250894457C399.53048401975803 381.7959168212677 400.46951598024197 381.7959168212677 401.23167885687815 382.23599567683027L414.76832216551156 390.05136752737906C415.53048504214775 390.4913232150559 416.00000102238965 391.30460076425254 416.00000102238965 392.184635307492V407.81537900858956C416.00000102238965 408.695413551829 415.53048504214775 409.50869110102565 414.76832216551156 409.9487699565882L401.23167885687815 417.764141807137C400.46951598024197 418.2040974948139 399.53048401975803 418.2040974948139 398.76832114312185 417.76401863925133L385.23167783448844 409.9486467887025C384.46951495785225 409.50869110102565 383.99999897761035 408.695413551829 383.99999897761035 407.81537900858956V392.184635307492C383.99999897761035 391.30460076425254 384.46951495785225 390.4913232150559 385.23167783448844 390.05124435949335L398.76832114312185 382.23587250894457Z " transform="rotate(4, 400, 400)" opacity="0.05"></path></g></svg>